<svg width="22" height="17" viewBox="0 0 22 17" fill="none" xmlns="http://www.w3.org/2000/svg">
<path fill-rule="evenodd" clip-rule="evenodd" d="M0.5 3.1025C0.5 2.41227 0.774191 1.75032 1.26225 1.26225C1.75032 0.774191 2.41227 0.5 3.1025 0.5H18.7175C19.4077 0.5 20.0697 0.774191 20.5577 1.26225C21.0458 1.75032 21.32 2.41227 21.32 3.1025V13.5125C21.32 14.2027 21.0458 14.8647 20.5577 15.3527C20.0697 15.8408 19.4077 16.115 18.7175 16.115H3.1025C2.41227 16.115 1.75032 15.8408 1.26225 15.3527C0.774191 14.8647 0.5 14.2027 0.5 13.5125V3.1025ZM3.1025 1.80125C2.75739 1.80125 2.42641 1.93835 2.18238 2.18238C1.93835 2.42641 1.80125 2.75739 1.80125 3.1025V4.40375H20.0187V3.1025C20.0187 2.75739 19.8817 2.42641 19.6376 2.18238C19.3936 1.93835 19.0626 1.80125 18.7175 1.80125H3.1025ZM20.0187 7.00625H1.80125V13.5125C1.80125 13.8576 1.93835 14.1886 2.18238 14.4326C2.42641 14.6767 2.75739 14.8138 3.1025 14.8138H18.7175C19.0626 14.8138 19.3936 14.6767 19.6376 14.4326C19.8817 14.1886 20.0187 13.8576 20.0187 13.5125V7.00625Z" fill="white"/>
<path d="M3.1025 10.91C3.1025 10.5649 3.2396 10.2339 3.48363 9.98989C3.72766 9.74586 4.05864 9.60876 4.40375 9.60876H5.705C6.05011 9.60876 6.38109 9.74586 6.62512 9.98989C6.86916 10.2339 7.00625 10.5649 7.00625 10.91V12.2113C7.00625 12.5564 6.86916 12.8874 6.62512 13.1314C6.38109 13.3754 6.05011 13.5125 5.705 13.5125H4.40375C4.05864 13.5125 3.72766 13.3754 3.48363 13.1314C3.2396 12.8874 3.1025 12.5564 3.1025 12.2113V10.91Z" fill="white"/>
</svg>
