<svg width="23" height="28" viewBox="0 0 23 28" fill="none" xmlns="http://www.w3.org/2000/svg">
<path d="M7.21384 8.8923H8.8923V22.32H7.21384V8.8923Z" fill="#FF0000"/>
<path d="M10.5708 8.8923H12.2492V22.32H10.5708V8.8923Z" fill="#FF0000"/>
<path d="M13.9277 8.8923H15.6061V22.32H13.9277V8.8923Z" fill="#FF0000"/>
<path d="M0.5 3.85692H22.32V5.53538H0.5V3.85692Z" fill="#FF0000"/>
<path d="M15.6062 3.85692H13.9277V3.01769C13.9277 2.51415 13.592 2.17846 13.0885 2.17846H9.73153C9.228 2.17846 8.8923 2.51415 8.8923 3.01769V3.85692H7.21384V3.01769C7.21384 1.591 8.30484 0.5 9.73153 0.5H13.0885C14.5152 0.5 15.6062 1.591 15.6062 3.01769V3.85692Z" fill="#FF0000"/>
<path d="M16.4454 27.3554H6.37461C5.03184 27.3554 3.85692 26.2644 3.68907 24.9216L2.17846 4.78008L3.85692 4.61224L5.36753 24.7538C5.36753 25.2573 5.87107 25.6769 6.37461 25.6769H16.4454C16.9489 25.6769 17.3685 25.2573 17.4525 24.7538L18.9631 4.61224L20.6415 4.78008L19.1309 24.9216C18.9631 26.2644 17.7882 27.3554 16.4454 27.3554Z" fill="#FF0000"/>
</svg>
