<svg width="20" height="26" viewBox="0 0 20 26" fill="none" xmlns="http://www.w3.org/2000/svg">
<path d="M11.5625 7.14062V0.5H1.79688C1.14746 0.5 0.625 1.02246 0.625 1.67188V24.3281C0.625 24.9775 1.14746 25.5 1.79688 25.5H18.2031C18.8525 25.5 19.375 24.9775 19.375 24.3281V8.3125H12.7344C12.0898 8.3125 11.5625 7.78516 11.5625 7.14062ZM14.6875 18.6641C14.6875 18.9863 14.4238 19.25 14.1016 19.25H5.89844C5.57617 19.25 5.3125 18.9863 5.3125 18.6641V18.2734C5.3125 17.9512 5.57617 17.6875 5.89844 17.6875H14.1016C14.4238 17.6875 14.6875 17.9512 14.6875 18.2734V18.6641ZM14.6875 15.5391C14.6875 15.8613 14.4238 16.125 14.1016 16.125H5.89844C5.57617 16.125 5.3125 15.8613 5.3125 15.5391V15.1484C5.3125 14.8262 5.57617 14.5625 5.89844 14.5625H14.1016C14.4238 14.5625 14.6875 14.8262 14.6875 15.1484V15.5391ZM14.6875 12.0234V12.4141C14.6875 12.7363 14.4238 13 14.1016 13H5.89844C5.57617 13 5.3125 12.7363 5.3125 12.4141V12.0234C5.3125 11.7012 5.57617 11.4375 5.89844 11.4375H14.1016C14.4238 11.4375 14.6875 11.7012 14.6875 12.0234ZM19.375 6.45215V6.75H13.125V0.5H13.4229C13.7354 0.5 14.0332 0.62207 14.2529 0.841797L19.0332 5.62695C19.2529 5.84668 19.375 6.14453 19.375 6.45215Z" fill="black"/>
</svg>
