<svg width="32" height="32" viewBox="0 0 32 32" fill="none" xmlns="http://www.w3.org/2000/svg">
<path d="M15.91 27.8425C22.5001 27.8425 27.8425 22.5001 27.8425 15.91C27.8425 9.31987 22.5001 3.97751 15.91 3.97751C9.31986 3.97751 3.9775 9.31987 3.9775 15.91C3.9775 22.5001 9.31986 27.8425 15.91 27.8425Z" stroke="black" stroke-width="3.735" stroke-linecap="round" stroke-linejoin="round"/>
<path d="M15.91 22.539V22.5577" stroke="black" stroke-width="3.735" stroke-linecap="round" stroke-linejoin="round"/>
<path d="M15.91 17.8988C15.8856 17.4684 16.0017 17.0417 16.2408 16.683C16.48 16.3244 16.8292 16.0531 17.2359 15.9101C17.7342 15.7195 18.1815 15.4158 18.5426 15.023C18.9036 14.6302 19.1686 14.1589 19.3165 13.6463C19.4645 13.1337 19.4915 12.5938 19.3953 12.0689C19.2991 11.5441 19.0824 11.0488 18.7623 10.622C18.4422 10.1952 18.0274 9.84847 17.5505 9.6092C17.0736 9.36993 16.5477 9.24463 16.0141 9.24315C15.4806 9.24167 14.954 9.36405 14.4758 9.60067C13.9976 9.83729 13.5808 10.1817 13.2584 10.6067" stroke="black" stroke-width="3.735" stroke-linecap="round" stroke-linejoin="round"/>
</svg>
