<svg width="15" height="13" viewBox="0 0 15 13" fill="none" xmlns="http://www.w3.org/2000/svg">
<path d="M1.33929 12.8571H13.6607C14.3989 12.8571 15 12.2561 15 11.5179V3.48214C15 2.74393 14.3989 2.14286 13.6607 2.14286H10.9232L10.6414 1.01464C10.5693 0.72465 10.4021 0.467174 10.1665 0.283276C9.93097 0.099379 9.64062 -0.000348355 9.34179 -1.00304e-06H5.65768C5.35891 -0.000322301 5.06864 0.099425 4.83318 0.283328C4.59772 0.467231 4.43063 0.724693 4.35857 1.01464L4.07679 2.14286H1.33929C0.984216 2.14328 0.64381 2.28452 0.392737 2.53559C0.141665 2.78667 0.000425319 3.12707 0 3.48214V11.5179C0 12.2561 0.601071 12.8571 1.33929 12.8571ZM13.6607 12.3214H1.33929C0.89625 12.3214 0.535714 11.9609 0.535714 11.5179V5.98393L6.16071 7.65053V9.375C6.16071 9.44604 6.18893 9.51417 6.23917 9.5644C6.2894 9.61463 6.35753 9.64285 6.42857 9.64285H8.57143C8.64247 9.64285 8.7106 9.61463 8.76083 9.5644C8.81107 9.51417 8.83929 9.44604 8.83929 9.375V7.65053L14.4643 5.98393V11.5179C14.4643 11.9609 14.1037 12.3214 13.6607 12.3214ZM7.5 8.57143C7.42896 8.57143 7.36083 8.59965 7.3106 8.64988C7.26036 8.70011 7.23214 8.76824 7.23214 8.83928V9.10714H6.69643V8.03571H8.30357V9.10714H7.76786V8.83928C7.76786 8.76824 7.73964 8.70011 7.6894 8.64988C7.63917 8.59965 7.57104 8.57143 7.5 8.57143ZM8.30357 7.45018V7.5H6.69643V6.96428H8.30357V7.45018ZM4.87821 1.14428C4.92155 0.970285 5.02191 0.81581 5.16328 0.705506C5.30466 0.595203 5.4789 0.535426 5.65821 0.535713H9.34232C9.52159 0.535613 9.69574 0.59546 9.83708 0.705734C9.97841 0.816008 10.0788 0.970376 10.1223 1.14428L10.3714 2.14286H4.62857L4.87821 1.14428ZM0.535714 3.48214C0.535714 3.03911 0.89625 2.67857 1.33929 2.67857H13.6607C14.1037 2.67857 14.4643 3.03911 14.4643 3.48214V5.42464L8.83929 7.09125V6.69643C8.83929 6.62539 8.81107 6.55726 8.76083 6.50702C8.7106 6.45679 8.64247 6.42857 8.57143 6.42857H6.42857C6.35753 6.42857 6.2894 6.45679 6.23917 6.50702C6.18893 6.55726 6.16071 6.62539 6.16071 6.69643V7.09178L0.535714 5.42464V3.48214Z" fill="black"/>
</svg>
