<svg width="27" height="29" viewBox="0 0 27 29" fill="none" xmlns="http://www.w3.org/2000/svg">
<path d="M5.664 3.94272H19.4347C20.3477 3.94272 21.2234 4.30543 21.869 4.95105C22.5146 5.59668 22.8773 6.47233 22.8773 7.38539V24.5987C22.8773 25.5118 22.5146 26.3874 21.869 27.0331C21.2234 27.6787 20.3477 28.0414 19.4347 28.0414H5.664C4.75095 28.0414 3.87529 27.6787 3.22967 27.0331C2.58404 26.3874 2.22133 25.5118 2.22133 24.5987H3.94267C3.94267 25.0552 4.12402 25.4931 4.44683 25.8159C4.76965 26.1387 5.20747 26.3201 5.664 26.3201H19.4347C19.8912 26.3201 20.329 26.1387 20.6518 25.8159C20.9746 25.4931 21.156 25.0552 21.156 24.5987V7.38539C21.156 6.92886 20.9746 6.49103 20.6518 6.16822C20.329 5.84541 19.8912 5.66405 19.4347 5.66405H5.664C5.20747 5.66405 4.76965 5.84541 4.44683 6.16822C4.12402 6.49103 3.94267 6.92886 3.94267 7.38539H2.22133C2.22133 6.47233 2.58404 5.59668 3.22967 4.95105C3.87529 4.30543 4.75095 3.94272 5.664 3.94272Z" fill="black"/>
<path d="M9.10667 0.5H22.8773C23.7904 0.5 24.666 0.862709 25.3117 1.50833C25.9573 2.15396 26.32 3.02962 26.32 3.94267V21.156C26.32 22.0691 25.9573 22.9447 25.3117 23.5903C24.666 24.236 23.7904 24.5987 22.8773 24.5987V22.8773C23.3339 22.8773 23.7717 22.696 24.0945 22.3732C24.4173 22.0504 24.5987 21.6125 24.5987 21.156V3.94267C24.5987 3.48614 24.4173 3.04831 24.0945 2.7255C23.7717 2.40269 23.3339 2.22133 22.8773 2.22133H9.10667C8.65014 2.22133 8.21231 2.40269 7.8895 2.7255C7.56669 3.04831 7.38533 3.48614 7.38533 3.94267H5.664C5.664 3.02962 6.02671 2.15396 6.67233 1.50833C7.31796 0.862709 8.19361 0.5 9.10667 0.5ZM2.22133 10.828V9.96733C2.22133 9.73907 2.31201 9.52016 2.47342 9.35875C2.63482 9.19735 2.85374 9.10667 3.082 9.10667C3.31026 9.10667 3.52918 9.19735 3.69058 9.35875C3.85199 9.52016 3.94267 9.73907 3.94267 9.96733V10.828H4.80333C5.0316 10.828 5.25051 10.9187 5.41192 11.0801C5.57332 11.2415 5.664 11.4604 5.664 11.6887C5.664 11.9169 5.57332 12.1358 5.41192 12.2973C5.25051 12.4587 5.0316 12.5493 4.80333 12.5493H1.36067C1.1324 12.5493 0.91349 12.4587 0.752083 12.2973C0.590677 12.1358 0.5 11.9169 0.5 11.6887C0.5 11.4604 0.590677 11.2415 0.752083 11.0801C0.91349 10.9187 1.1324 10.828 1.36067 10.828H2.22133ZM2.22133 15.992V15.1313C2.22133 14.9031 2.31201 14.6842 2.47342 14.5228C2.63482 14.3613 2.85374 14.2707 3.082 14.2707C3.31026 14.2707 3.52918 14.3613 3.69058 14.5228C3.85199 14.6842 3.94267 14.9031 3.94267 15.1313V15.992H4.80333C5.0316 15.992 5.25051 16.0827 5.41192 16.2441C5.57332 16.4055 5.664 16.6244 5.664 16.8527C5.664 17.0809 5.57332 17.2998 5.41192 17.4613C5.25051 17.6227 5.0316 17.7133 4.80333 17.7133H1.36067C1.1324 17.7133 0.91349 17.6227 0.752083 17.4613C0.590677 17.2998 0.5 17.0809 0.5 16.8527C0.5 16.6244 0.590677 16.4055 0.752083 16.2441C0.91349 16.0827 1.1324 15.992 1.36067 15.992H2.22133ZM2.22133 21.156V20.2953C2.22133 20.0671 2.31201 19.8482 2.47342 19.6868C2.63482 19.5253 2.85374 19.4347 3.082 19.4347C3.31026 19.4347 3.52918 19.5253 3.69058 19.6868C3.85199 19.8482 3.94267 20.0671 3.94267 20.2953V21.156H4.80333C5.0316 21.156 5.25051 21.2467 5.41192 21.4081C5.57332 21.5695 5.664 21.7884 5.664 22.0167C5.664 22.2449 5.57332 22.4638 5.41192 22.6253C5.25051 22.7867 5.0316 22.8773 4.80333 22.8773H1.36067C1.1324 22.8773 0.91349 22.7867 0.752083 22.6253C0.590677 22.4638 0.5 22.2449 0.5 22.0167C0.5 21.7884 0.590677 21.5695 0.752083 21.4081C0.91349 21.2467 1.1324 21.156 1.36067 21.156H2.22133Z" fill="black"/>
</svg>
