<svg width="23" height="16" viewBox="0 0 23 16" fill="none" xmlns="http://www.w3.org/2000/svg">
<path d="M0.5 1.58575C0.5 0.986106 0.986106 0.5 1.58575 0.5H10.3242C10.9238 0.5 11.41 0.986106 11.41 1.58575C11.41 2.1854 10.9238 2.67152 10.3242 2.67152H1.58575C0.986106 2.67152 0.5 2.1854 0.5 1.58575Z" fill="black"/>
<path d="M0.5 8.13676C0.5 7.53704 0.986106 7.05099 1.58575 7.05099H21.2342C21.8339 7.05099 22.32 7.53704 22.32 8.13676C22.32 8.73637 21.8339 9.22241 21.2342 9.22241H1.58575C0.986106 9.22241 0.5 8.73637 0.5 8.13676Z" fill="black"/>
<path d="M1.58575 13.6025C0.986106 13.6025 0.5 14.0887 0.5 14.6883C0.5 15.2879 0.986106 15.7741 1.58575 15.7741H14.6882C15.2878 15.7741 15.774 15.2879 15.774 14.6883C15.774 14.0887 15.2878 13.6025 14.6882 13.6025H1.58575Z" fill="black"/>
</svg>
