<svg width="24" height="24" viewBox="0 0 24 24" fill="none" xmlns="http://www.w3.org/2000/svg">
<path fill-rule="evenodd" clip-rule="evenodd" d="M6.20476 21.8968C6.58304 21.8968 6.94583 21.7465 7.21332 21.479C7.48081 21.2115 7.63108 20.8488 7.63108 20.4705C7.63108 20.0922 7.48081 19.7294 7.21332 19.4619C6.94583 19.1944 6.58304 19.0441 6.20476 19.0441C5.82647 19.0441 5.46368 19.1944 5.19619 19.4619C4.92871 19.7294 4.77843 20.0922 4.77843 20.4705C4.77843 20.8488 4.92871 21.2115 5.19619 21.479C5.46368 21.7465 5.82647 21.8968 6.20476 21.8968ZM6.20476 23.3231C6.96133 23.3231 7.68691 23.0226 8.22189 22.4876C8.75686 21.9526 9.05741 21.227 9.05741 20.4705C9.05741 19.7139 8.75686 18.9883 8.22189 18.4533C7.68691 17.9184 6.96133 17.6178 6.20476 17.6178C5.44819 17.6178 4.7226 17.9184 4.18763 18.4533C3.65265 18.9883 3.35211 19.7139 3.35211 20.4705C3.35211 21.227 3.65265 21.9526 4.18763 22.4876C4.7226 23.0226 5.44819 23.3231 6.20476 23.3231ZM17.6154 21.8968C17.9936 21.8968 18.3564 21.7465 18.6239 21.479C18.8914 21.2115 19.0417 20.8488 19.0417 20.4705C19.0417 20.0922 18.8914 19.7294 18.6239 19.4619C18.3564 19.1944 17.9936 19.0441 17.6154 19.0441C17.2371 19.0441 16.8743 19.1944 16.6068 19.4619C16.3393 19.7294 16.189 20.0922 16.189 20.4705C16.189 20.8488 16.3393 21.2115 16.6068 21.479C16.8743 21.7465 17.2371 21.8968 17.6154 21.8968ZM17.6154 23.3231C18.3719 23.3231 19.0975 23.0226 19.6325 22.4876C20.1675 21.9526 20.468 21.227 20.468 20.4705C20.468 19.7139 20.1675 18.9883 19.6325 18.4533C19.0975 17.9184 18.3719 17.6178 17.6154 17.6178C16.8588 17.6178 16.1332 17.9184 15.5982 18.4533C15.0633 18.9883 14.7627 19.7139 14.7627 20.4705C14.7627 21.227 15.0633 21.9526 15.5982 22.4876C16.1332 23.0226 16.8588 23.3231 17.6154 23.3231ZM0.663484 5.03762C0.730538 4.95712 0.814505 4.89238 0.909416 4.848C1.00433 4.80363 1.10785 4.78071 1.21262 4.78088H22.6075C22.7122 4.78098 22.8156 4.80414 22.9104 4.84871C23.0051 4.89328 23.0889 4.95817 23.1558 5.03877C23.2226 5.11937 23.2709 5.2137 23.2972 5.31507C23.3235 5.41643 23.3271 5.52234 23.3078 5.62527L21.1683 17.0359C21.1377 17.1993 21.051 17.3469 20.9231 17.4532C20.7953 17.5594 20.6343 17.6177 20.468 17.6178H3.35211C3.18584 17.6177 3.02486 17.5594 2.89698 17.4532C2.76911 17.3469 2.68237 17.1993 2.65178 17.0359L0.512294 5.62527C0.492951 5.52245 0.496469 5.41663 0.522597 5.31532C0.548726 5.21401 0.596825 5.11826 0.663484 5.03762ZM2.07127 6.20721L3.94403 16.1915H19.8761L21.7488 6.20721H2.07127Z" fill="white"/>
<path fill-rule="evenodd" clip-rule="evenodd" d="M9.05741 1.92823C9.3892 1.48486 9.81977 1.12492 10.315 0.877003C10.8101 0.629083 11.3563 0.5 11.9101 0.5C12.4638 0.5 13.01 0.629083 13.5052 0.877003C14.0003 1.12492 14.4309 1.48486 14.7627 1.92823C15.9294 1.92823 16.9664 2.4902 17.6154 3.35456C18.571 3.35456 19.829 4.16756 20.468 4.78088H17.6154C17.1675 4.78088 16.7439 4.56693 16.4743 4.21035C16.0835 3.68974 15.4616 3.35456 14.7627 3.35456C14.3148 3.35456 13.8912 3.14061 13.6216 2.78403C13.4229 2.51754 13.1647 2.30114 12.8675 2.15207C12.5704 2.00299 12.2425 1.92537 11.9101 1.92537C11.5776 1.92537 11.2498 2.00299 10.9526 2.15207C10.6555 2.30114 10.3972 2.51754 10.1985 2.78403C9.92889 3.14061 9.50527 3.35456 9.05741 3.35456C8.33426 3.35456 7.69527 3.71256 7.30588 4.26455C7.17751 4.44997 7.02917 4.62113 6.86657 4.78088H4.77843C4.96385 4.57121 5.35039 4.16471 5.58003 4.00353C5.79759 3.85015 5.98719 3.66055 6.14057 3.44299C6.46944 2.97488 6.90619 2.59285 7.41389 2.32919C7.9216 2.06553 8.48532 1.928 9.05741 1.92823Z" fill="white"/>
</svg>
