<svg width="21" height="21" viewBox="0 0 21 21" fill="none" xmlns="http://www.w3.org/2000/svg">
<path d="M18.3985 15.8219C17.8676 15.3486 17.4028 14.806 17.0167 14.2087C16.5951 13.3843 16.3424 12.484 16.2734 11.5606V8.84082C16.277 7.39045 15.7509 5.98866 14.7939 4.89883C13.8369 3.80901 12.5148 3.10616 11.0762 2.92235V2.21213C11.0762 2.0172 10.9987 1.83025 10.8609 1.69242C10.723 1.55458 10.5361 1.47714 10.3412 1.47714C10.1462 1.47714 9.95929 1.55458 9.82145 1.69242C9.68361 1.83025 9.60618 2.0172 9.60618 2.21213V2.93336C8.18038 3.13042 6.87431 3.83752 5.92986 4.92368C4.98541 6.00984 4.46659 7.40148 4.4695 8.84082V11.5606C4.40054 12.484 4.14785 13.3843 3.72625 14.2087C3.34685 14.8046 2.88951 15.3471 2.36637 15.8219C2.30765 15.8735 2.26058 15.937 2.22831 16.0082C2.19603 16.0794 2.17928 16.1566 2.17919 16.2348V16.9835C2.17919 17.1296 2.23719 17.2696 2.34044 17.3728C2.44369 17.4761 2.58373 17.5341 2.72974 17.5341H18.0352C18.1812 17.5341 18.3212 17.4761 18.4245 17.3728C18.5277 17.2696 18.5857 17.1296 18.5857 16.9835V16.2348C18.5856 16.1566 18.5689 16.0794 18.5366 16.0082C18.5043 15.937 18.4573 15.8735 18.3985 15.8219ZM3.32434 16.433C3.83658 15.9382 4.28759 15.3836 4.6677 14.7813C5.19877 13.7856 5.50863 12.687 5.57611 11.5606V8.84082C5.55428 8.19559 5.66251 7.55257 5.89436 6.95003C6.12621 6.3475 6.47694 5.79778 6.92566 5.33362C7.37438 4.86946 7.91192 4.50034 8.50627 4.24824C9.10061 3.99614 9.73961 3.86623 10.3852 3.86623C11.0308 3.86623 11.6698 3.99614 12.2642 4.24824C12.8585 4.50034 13.396 4.86946 13.8448 5.33362C14.2935 5.79778 14.6442 6.3475 14.8761 6.95003C15.1079 7.55257 15.2162 8.19559 15.1943 8.84082V11.5606C15.2618 12.687 15.5717 13.7856 16.1027 14.7813C16.4828 15.3836 16.9338 15.9382 17.4461 16.433H3.32434Z" fill="black"/>
<path d="M10.41 19.3731C10.7568 19.3651 11.0896 19.2348 11.3496 19.005C11.6095 18.7753 11.7798 18.4611 11.8304 18.1179H8.9345C8.98651 18.4704 9.16481 18.792 9.43622 19.0229C9.70763 19.2538 10.0537 19.3783 10.41 19.3731Z" fill="black"/>
</svg>
