<svg width="15" height="20" viewBox="0 0 15 20" fill="none" xmlns="http://www.w3.org/2000/svg">
<path d="M13.2576 4.74978H10.9096C10.7049 3.9761 10.3433 3.2528 9.84711 2.62489H13.2576C13.5393 2.62489 13.8096 2.51295 14.0088 2.31371C14.2081 2.11446 14.32 1.84422 14.32 1.56244C14.32 1.28067 14.2081 1.01043 14.0088 0.811183C13.8096 0.611936 13.5393 0.5 13.2576 0.5H1.57067C1.28889 0.5 1.01865 0.611936 0.819405 0.811183C0.620158 1.01043 0.508222 1.28067 0.508222 1.56244C0.508222 1.84422 0.620158 2.11446 0.819405 2.31371C1.01865 2.51295 1.28889 2.62489 1.57067 2.62489H5.28922C5.99069 2.62735 6.67715 2.82818 7.26934 3.20417C7.86153 3.58016 8.3353 4.11599 8.63592 4.74978H1.57067C1.28889 4.74978 1.01865 4.86171 0.819405 5.06096C0.620158 5.26021 0.508222 5.53044 0.508222 5.81222C0.508222 6.094 0.620158 6.36424 0.819405 6.56348C1.01865 6.76273 1.28889 6.87467 1.57067 6.87467H9.00778C8.88041 7.75713 8.44021 8.56446 7.76739 9.14952C7.09458 9.73457 6.23395 10.0584 5.34234 10.062H1.57067C1.52121 10.057 1.47138 10.057 1.42192 10.062C1.35152 10.051 1.27984 10.051 1.20943 10.062C1.13701 10.0867 1.0689 10.1225 1.00757 10.1682L0.880077 10.2426C0.821879 10.2952 0.771758 10.356 0.731335 10.4232C0.695751 10.4703 0.663786 10.52 0.635715 10.572C0.626258 10.6354 0.626258 10.6998 0.635715 10.7632C0.560003 10.8692 0.515805 10.9944 0.508222 11.1244C0.503251 11.1739 0.503251 11.2237 0.508222 11.2732C0.497259 11.3436 0.497259 11.4153 0.508222 11.4857C0.532886 11.5581 0.568735 11.6262 0.614466 11.6875C0.614466 11.6875 0.614466 11.7725 0.688837 11.815L7.0635 19.2521C7.24666 19.4663 7.50739 19.5989 7.78832 19.6208C8.06926 19.6428 8.3474 19.5522 8.56155 19.369C8.7757 19.1859 8.90832 18.9251 8.93024 18.6442C8.95216 18.3633 8.86157 18.0851 8.67842 17.871L3.8868 12.1869H5.28922C6.75121 12.1929 8.16235 11.6507 9.24414 10.6673C10.3259 9.68385 10.9998 8.33061 11.1327 6.87467H13.2576C13.5393 6.87467 13.8096 6.76273 14.0088 6.56348C14.2081 6.36424 14.32 6.094 14.32 5.81222C14.32 5.53044 14.2081 5.26021 14.0088 5.06096C13.8096 4.86171 13.5393 4.74978 13.2576 4.74978Z" fill="white"/>
</svg>
