<svg width="25" height="21" viewBox="0 0 25 21" fill="none" xmlns="http://www.w3.org/2000/svg">
<path d="M3.68528 19.971C3.81686 19.971 3.92346 19.8644 3.92346 19.7328V13.0385C3.92346 12.9069 3.81686 12.8003 3.68528 12.8003H1.77989C1.74861 12.8003 1.71763 12.8064 1.68873 12.8184C1.65983 12.8304 1.63358 12.8479 1.61146 12.87C1.58934 12.8922 1.5718 12.9184 1.55983 12.9473C1.54786 12.9762 1.54171 13.0072 1.54171 13.0385V19.7328C1.54171 19.8644 1.64831 19.971 1.77989 19.971H3.68528ZM3.68528 20.9237H1.77989C1.12216 20.9237 0.589014 20.3906 0.589014 19.7328V13.0385C0.589014 12.3807 1.12216 11.8476 1.77989 11.8476H3.68528C4.34301 11.8476 4.87615 12.3807 4.87615 13.0385V19.7328C4.87615 20.3906 4.34301 20.9237 3.68528 20.9237ZM10.161 19.971C10.2926 19.971 10.3991 19.8644 10.3991 19.7328V11.6561C10.3991 11.5245 10.2926 11.4179 10.161 11.4179H8.25558C8.2243 11.4179 8.19333 11.4241 8.16443 11.436C8.13553 11.448 8.10927 11.4656 8.08715 11.4877C8.06503 11.5098 8.04749 11.5361 8.03552 11.5649C8.02356 11.5938 8.0174 11.6248 8.01741 11.6561V19.7328C8.01741 19.8644 8.124 19.971 8.25558 19.971H10.161ZM10.161 20.9237H8.25558C7.59785 20.9237 7.06471 20.3906 7.06471 19.7328V11.6561C7.06471 10.9984 7.59785 10.4652 8.25558 10.4652H10.161C10.8187 10.4652 11.3518 10.9984 11.3518 11.6561V19.7328C11.3518 20.3906 10.8187 20.9237 10.161 20.9237ZM16.6367 19.9854C16.7682 19.9854 16.8748 19.8788 16.8748 19.7472V10.2879C16.8748 10.1564 16.7681 10.0497 16.6367 10.0497H14.7313C14.5998 10.0497 14.4931 10.1564 14.4931 10.2879V19.7472C14.4931 19.8788 14.5997 19.9854 14.7313 19.9854H16.6367ZM16.6367 20.9381H14.7313C14.0735 20.9381 13.5404 20.4049 13.5404 19.7472V10.2879C13.5404 9.63032 14.0736 9.09701 14.7313 9.09701H16.6367C17.2943 9.09701 17.8275 9.63032 17.8275 10.2879V19.7472C17.8275 20.4049 17.2944 20.9381 16.6367 20.9381ZM23.1124 19.9854C23.2439 19.9854 23.3505 19.8788 23.3505 19.7473V9.09705C23.3505 8.96548 23.2439 8.85888 23.1124 8.85888H21.207C21.1757 8.85887 21.1447 8.86503 21.1158 8.877C21.0869 8.88897 21.0607 8.90651 21.0385 8.92863C21.0164 8.95074 20.9989 8.977 20.9869 9.0059C20.9749 9.0348 20.9688 9.06578 20.9688 9.09705V19.7473C20.9688 19.8788 21.0754 19.9854 21.207 19.9854H23.1124ZM23.1124 20.9381H21.207C20.5492 20.9381 20.0161 20.405 20.0161 19.7473V9.09705C20.0161 8.43933 20.5492 7.90618 21.207 7.90618H23.1124C23.7701 7.90618 24.3032 8.43933 24.3032 9.09705V19.7473C24.3032 20.405 23.7701 20.9381 23.1124 20.9381ZM22.968 1.35616C16.2553 5.13808 8.76324 7.36917 0.947601 7.84192C0.685005 7.8578 0.484998 8.08356 0.500884 8.34615C0.516771 8.60875 0.742525 8.80876 1.00512 8.79287C8.96573 8.31136 16.5979 6.03854 23.4357 2.18619C23.6649 2.05705 23.746 1.76657 23.6169 1.53735C23.4877 1.30813 23.1973 1.22702 22.968 1.35616Z" fill="white"/>
<path d="M21.4614 1.4527L23.8429 1.45628C24.106 1.45668 24.3196 1.24374 24.32 0.980652C24.3204 0.717567 24.1075 0.503978 23.8444 0.503582L21.4629 0.500001C21.1998 0.499605 20.9862 0.712543 20.9858 0.975628C20.9854 1.23871 21.1983 1.4523 21.4614 1.4527Z" fill="white"/>
<path d="M23.3673 0.978479L23.3602 3.3469C23.3594 3.60998 23.572 3.8239 23.8351 3.82469C24.0981 3.82548 24.3121 3.61286 24.3129 3.34978L24.32 0.981364C24.3208 0.718279 24.1082 0.504364 23.8451 0.503573C23.582 0.502782 23.3681 0.715394 23.3673 0.978479Z" fill="white"/>
</svg>
