<svg width="18" height="18" viewBox="0 0 18 18" fill="none" xmlns="http://www.w3.org/2000/svg">
<path d="M7.10786 0.5C10.7573 0.5 13.7157 3.45844 13.7157 7.10786C13.7157 8.71632 13.141 10.1906 12.1858 11.3364L17.1441 16.2945C17.3786 16.5291 17.3786 16.9095 17.1441 17.1441C16.9355 17.3526 16.6118 17.3758 16.3777 17.2136L16.2945 17.1441L11.3364 12.1858C10.1906 13.141 8.71632 13.7157 7.10786 13.7157C3.45844 13.7157 0.5 10.7573 0.5 7.10786C0.5 3.45844 3.45844 0.5 7.10786 0.5ZM7.10786 1.70143C4.12197 1.70143 1.70143 4.12197 1.70143 7.10786C1.70143 10.0937 4.12197 12.5143 7.10786 12.5143C10.0937 12.5143 12.5143 10.0937 12.5143 7.10786C12.5143 4.12197 10.0937 1.70143 7.10786 1.70143Z" fill="#212121"/>
</svg>
