<svg width="22" height="22" viewBox="0 0 22 22" fill="none" xmlns="http://www.w3.org/2000/svg">
<path d="M20.8721 13.4348L19.3052 12.0952C19.3794 11.6407 19.4177 11.1766 19.4177 10.7125C19.4177 10.2485 19.3794 9.7844 19.3052 9.3299L20.8721 7.99031C20.9903 7.88914 21.0748 7.75439 21.1146 7.60398C21.1543 7.45357 21.1473 7.29463 21.0945 7.14828L21.073 7.08609C20.6417 5.88052 19.9957 4.76294 19.1665 3.78735L19.1234 3.73712C19.0228 3.61883 18.8888 3.5338 18.7389 3.49323C18.589 3.45267 18.4303 3.45847 18.2838 3.50987L16.339 4.20119C15.6214 3.61273 14.82 3.14866 13.954 2.82333L13.5785 0.790023C13.5502 0.637028 13.4759 0.496276 13.3657 0.386467C13.2555 0.276657 13.1144 0.202988 12.9613 0.175247L12.8967 0.163287C11.6504 -0.0615726 10.3396 -0.0615726 9.09325 0.163287L9.02867 0.175247C8.87556 0.202988 8.73452 0.276657 8.62429 0.386467C8.51405 0.496276 8.43983 0.637028 8.4115 0.790023L8.03354 2.8329C7.1745 3.15829 6.37453 3.62212 5.66534 4.20597L3.70619 3.50987C3.55971 3.45806 3.40094 3.45205 3.25096 3.49264C3.10098 3.53323 2.96691 3.6185 2.86656 3.73712L2.8235 3.78735C1.99522 4.76363 1.34941 5.88103 0.916976 7.08609L0.895447 7.14828C0.787802 7.4473 0.87631 7.7822 1.11791 7.99031L2.70389 9.34425C2.62974 9.79397 2.59385 10.2533 2.59385 10.7102C2.59385 11.1694 2.62974 11.6287 2.70389 12.0761L1.11791 13.43C0.999734 13.5312 0.91515 13.6659 0.875411 13.8163C0.835672 13.9667 0.84266 14.1257 0.895447 14.272L0.916976 14.3342C1.34995 15.5398 1.99104 16.6522 2.8235 17.633L2.86656 17.6832C2.96716 17.8015 3.10123 17.8865 3.25112 17.9271C3.40101 17.9676 3.55967 17.9618 3.70619 17.9104L5.66534 17.2143C6.37819 17.8004 7.17477 18.2645 8.03354 18.5874L8.4115 20.6303C8.43983 20.7833 8.51405 20.924 8.62429 21.0338C8.73452 21.1437 8.87556 21.2173 9.02867 21.2451L9.09325 21.257C10.351 21.4831 11.639 21.4831 12.8967 21.257L12.9613 21.2451C13.1144 21.2173 13.2555 21.1437 13.3657 21.0338C13.4759 20.924 13.5502 20.7833 13.5785 20.6303L13.954 18.597C14.8196 18.2725 15.6255 17.8069 16.339 17.2191L18.2838 17.9104C18.4303 17.9622 18.589 17.9683 18.739 17.9277C18.889 17.8871 19.0231 17.8018 19.1234 17.6832L19.1665 17.633C19.9989 16.6498 20.64 15.5398 21.073 14.3342L21.0945 14.272C21.2022 13.9778 21.1137 13.6429 20.8721 13.4348ZM17.6068 9.61217C17.6666 9.97338 17.6977 10.3442 17.6977 10.7149C17.6977 11.0857 17.6666 11.4565 17.6068 11.8177L17.4489 12.7769L19.2359 14.3055C18.965 14.9296 18.623 15.5204 18.2168 16.0661L15.9969 15.2791L15.2458 15.8963C14.6741 16.3651 14.0378 16.7335 13.3488 16.9919L12.4374 17.3339L12.0093 19.6543C11.3336 19.7308 10.6516 19.7308 9.97595 19.6543L9.54776 17.3292L8.64354 16.9823C7.96178 16.7239 7.32787 16.3556 6.76093 15.8891L6.00981 15.2695L3.77556 16.0637C3.3689 15.5159 3.02922 14.9251 2.75652 14.3031L4.56257 12.7602L4.40708 11.8034C4.34967 11.4469 4.31858 11.0785 4.31858 10.7149C4.31858 10.3489 4.34728 9.98295 4.40708 9.62652L4.56257 8.66967L2.75652 7.12675C3.02683 6.50241 3.3689 5.91395 3.77556 5.36615L6.00981 6.16034L6.76093 5.54078C7.32787 5.07431 7.96178 4.70593 8.64354 4.44758L9.55015 4.1055L9.97834 1.78036C10.6505 1.70381 11.3371 1.70381 12.0116 1.78036L12.4398 4.10072L13.3512 4.44279C14.0378 4.70114 14.6765 5.06953 15.2482 5.53839L15.9993 6.15555L18.2192 5.36854C18.6259 5.91634 18.9655 6.50719 19.2382 7.12915L17.4513 8.65771L17.6068 9.61217ZM10.9974 6.26559C8.67224 6.26559 6.78725 8.15058 6.78725 10.4757C6.78725 12.8009 8.67224 14.6859 10.9974 14.6859C13.3225 14.6859 15.2075 12.8009 15.2075 10.4757C15.2075 8.15058 13.3225 6.26559 10.9974 6.26559ZM12.8919 12.3703C12.6435 12.6195 12.3481 12.8171 12.023 12.9518C11.6979 13.0864 11.3493 13.1555 10.9974 13.1549C10.2821 13.1549 9.60995 12.875 9.10282 12.3703C8.85362 12.1218 8.65601 11.8265 8.52135 11.5013C8.3867 11.1762 8.31766 10.8276 8.31821 10.4757C8.31821 9.76048 8.59808 9.08829 9.10282 8.58116C9.60995 8.07403 10.2821 7.79655 10.9974 7.79655C11.7126 7.79655 12.3848 8.07403 12.8919 8.58116C13.1411 8.82965 13.3388 9.12496 13.4734 9.45011C13.6081 9.77525 13.6771 10.1238 13.6766 10.4757C13.6766 11.191 13.3967 11.8632 12.8919 12.3703Z" fill="black"/>
</svg>
