<svg width="25" height="25" viewBox="0 0 25 25" fill="none" xmlns="http://www.w3.org/2000/svg">
<path d="M13.1453 13.6543L10.2903 16.4969C10.174 16.6123 10.0816 16.7496 10.0186 16.9008C9.95558 17.0521 9.92313 17.2143 9.92313 17.3782C9.92313 17.5421 9.95558 17.7043 10.0186 17.8556C10.0816 18.0068 10.174 18.1441 10.2903 18.2595C10.4057 18.3759 10.543 18.4682 10.6942 18.5312C10.8455 18.5942 11.0078 18.6267 11.1716 18.6267C11.3355 18.6267 11.4977 18.5942 11.649 18.5312C11.8003 18.4682 11.9375 18.3759 12.0529 18.2595L17.0181 13.2944C17.1311 13.1763 17.2197 13.0371 17.2788 12.8847C17.4029 12.5825 17.4029 12.2436 17.2788 11.9413C17.2197 11.789 17.1311 11.6498 17.0181 11.5317L12.0529 6.56655C11.9372 6.45082 11.7998 6.35901 11.6486 6.29638C11.4974 6.23374 11.3353 6.2015 11.1716 6.2015C11.0079 6.2015 10.8459 6.23374 10.6947 6.29638C10.5434 6.35901 10.406 6.45082 10.2903 6.56655C10.1746 6.68229 10.0828 6.81969 10.0201 6.97091C9.95749 7.12212 9.92525 7.2842 9.92525 7.44787C9.92525 7.61155 9.95749 7.77362 10.0201 7.92484C10.0828 8.07605 10.1746 8.21345 10.2903 8.32919L13.1453 11.1717H1.24129C0.91208 11.1717 0.596353 11.3025 0.363566 11.5353C0.130778 11.7681 0 12.0838 0 12.413C0 12.7422 0.130778 13.058 0.363566 13.2908C0.596353 13.5235 0.91208 13.6543 1.24129 13.6543H13.1453ZM12.4129 0.000123749C10.0931 -0.0102333 7.81671 0.629723 5.8421 1.8474C3.86748 3.06508 2.27362 4.81175 1.24129 6.88929C1.09315 7.18558 1.06877 7.52858 1.17352 7.84285C1.27828 8.15711 1.50358 8.41689 1.79987 8.56503C2.09616 8.71318 2.43917 8.73755 2.75343 8.6328C3.06769 8.52805 3.32747 8.30274 3.47562 8.00645C4.26035 6.42172 5.45403 5.07529 6.93329 4.1063C8.41256 3.13731 10.1238 2.58091 11.89 2.49461C13.6563 2.40831 15.4136 2.79523 16.9803 3.6154C18.547 4.43556 19.8662 5.65921 20.8017 7.15989C21.7372 8.66056 22.255 10.3838 22.3015 12.1516C22.3481 13.9194 21.9218 15.6675 21.0666 17.2154C20.2114 18.7632 18.9584 20.0546 17.4371 20.9561C15.9158 21.8576 14.1813 22.3366 12.4129 22.3434C10.562 22.3514 8.74633 21.8374 7.17428 20.8603C5.60223 19.8833 4.33751 18.4828 3.52527 16.8196C3.37712 16.5233 3.11734 16.298 2.80308 16.1933C2.48882 16.0885 2.14581 16.1129 1.84952 16.261C1.55323 16.4092 1.32793 16.669 1.22318 16.9832C1.11842 17.2975 1.1428 17.6405 1.29094 17.9368C2.27507 19.9173 3.77045 21.5989 5.62239 22.8077C7.47434 24.0164 9.6156 24.7085 11.8247 24.8123C14.0338 24.916 16.2305 24.4277 18.1876 23.3979C20.1447 22.368 21.7911 20.8339 22.9565 18.9544C24.122 17.0749 24.7641 14.9181 24.8165 12.7072C24.8689 10.4963 24.3297 8.31155 23.2547 6.37891C22.1796 4.44627 20.6077 2.83594 18.7016 1.71448C16.7955 0.59302 14.6244 0.00116203 12.4129 0.000123749Z" fill="black"/>
</svg>
