<svg width="26" height="22" viewBox="0 0 26 22" fill="none" xmlns="http://www.w3.org/2000/svg">
<path d="M7.31689 0.233399C7.26246 0.178774 7.19778 0.135432 7.12655 0.105859C7.05533 0.0762851 6.97897 0.0610619 6.90186 0.0610619C6.82474 0.0610619 6.74838 0.0762851 6.67716 0.105859C6.60594 0.135432 6.54125 0.178774 6.48682 0.233399L3.37744 3.32471L2.26904 2.24463C2.21461 2.19 2.14992 2.14666 2.0787 2.11709C2.00748 2.08752 1.93112 2.07229 1.854 2.07229C1.77689 2.07229 1.70053 2.08752 1.62931 2.11709C1.55808 2.14666 1.4934 2.19 1.43896 2.24463L0.672363 3.01221C0.617738 3.06664 0.574396 3.13133 0.544823 3.20255C0.515249 3.27377 0.500026 3.35013 0.500026 3.42725C0.500026 3.50436 0.515249 3.58072 0.544823 3.65195C0.574396 3.72317 0.617738 3.78785 0.672363 3.84229L2.99609 6.15674C3.11208 6.26699 3.266 6.32847 3.42603 6.32847C3.58606 6.32847 3.73997 6.26699 3.85596 6.15674L4.61719 5.39404L8.14258 1.86914C8.25242 1.75921 8.31449 1.6104 8.31531 1.455C8.31613 1.29961 8.25564 1.15015 8.14697 1.03906L7.31689 0.233399ZM7.31689 8.00635C7.26246 7.95172 7.19778 7.90838 7.12655 7.87881C7.05533 7.84923 6.97897 7.83401 6.90186 7.83401C6.82474 7.83401 6.74838 7.84923 6.67716 7.87881C6.60594 7.90838 6.54125 7.95172 6.48682 8.00635L3.37744 11.1177L2.26904 10.0386C2.21461 9.98395 2.14992 9.94061 2.0787 9.91103C2.00748 9.88146 1.93112 9.86624 1.854 9.86624C1.77689 9.86624 1.70053 9.88146 1.62931 9.91103C1.55808 9.94061 1.4934 9.98395 1.43896 10.0386L0.672363 10.8047C0.617738 10.8591 0.574396 10.9238 0.544823 10.995C0.515249 11.0663 0.500026 11.1426 0.500026 11.2197C0.500026 11.2968 0.515249 11.3732 0.544823 11.4444C0.574396 11.5156 0.617738 11.5803 0.672363 11.6348L2.99023 13.9541C3.10614 14.0643 3.25997 14.1258 3.41992 14.1258C3.57987 14.1258 3.7337 14.0643 3.84961 13.9541L4.61621 13.188L8.1416 9.66162C8.25102 9.55246 8.31288 9.40449 8.3137 9.24993C8.31453 9.09537 8.25425 8.94675 8.146 8.83643L7.31689 8.00635ZM3.625 16.4687C2.33154 16.4687 1.25244 17.5186 1.25244 18.8125C1.25244 20.1064 2.33252 21.1562 3.625 21.1562C4.2466 21.1562 4.84274 20.9093 5.28228 20.4698C5.72182 20.0302 5.96875 19.4341 5.96875 18.8125C5.96875 18.1909 5.72182 17.5948 5.28228 17.1552C4.84274 16.7157 4.2466 16.4687 3.625 16.4687ZM24.7187 17.25H10.6563C10.449 17.25 10.2503 17.3323 10.1038 17.4788C9.95731 17.6253 9.875 17.824 9.875 18.0312V19.5937C9.875 19.801 9.95731 19.9997 10.1038 20.1462C10.2503 20.2927 10.449 20.375 10.6563 20.375H24.7187C24.9259 20.375 25.1247 20.2927 25.2712 20.1462C25.4177 19.9997 25.5 19.801 25.5 19.5937V18.0312C25.5 17.824 25.4177 17.6253 25.2712 17.4788C25.1247 17.3323 24.9259 17.25 24.7187 17.25ZM24.7187 1.625H10.6563C10.449 1.625 10.2503 1.70731 10.1038 1.85382C9.95731 2.00034 9.875 2.19905 9.875 2.40625V3.96875C9.875 4.17595 9.95731 4.37466 10.1038 4.52118C10.2503 4.66769 10.449 4.75 10.6563 4.75H24.7187C24.9259 4.75 25.1247 4.66769 25.2712 4.52118C25.4177 4.37466 25.5 4.17595 25.5 3.96875V2.40625C25.5 2.19905 25.4177 2.00034 25.2712 1.85382C25.1247 1.70731 24.9259 1.625 24.7187 1.625ZM24.7187 9.4375H10.6563C10.449 9.4375 10.2503 9.51981 10.1038 9.66632C9.95731 9.81284 9.875 10.0116 9.875 10.2188V11.7813C9.875 11.9885 9.95731 12.1872 10.1038 12.3337C10.2503 12.4802 10.449 12.5625 10.6563 12.5625H24.7187C24.9259 12.5625 25.1247 12.4802 25.2712 12.3337C25.4177 12.1872 25.5 11.9885 25.5 11.7813V10.2188C25.5 10.0116 25.4177 9.81284 25.2712 9.66632C25.1247 9.51981 24.9259 9.4375 24.7187 9.4375Z" fill="black"/>
</svg>
