<svg width="16" height="4" viewBox="0 0 16 4" fill="none" xmlns="http://www.w3.org/2000/svg">
<path fill-rule="evenodd" clip-rule="evenodd" d="M2.21 3.92C1.75648 3.92 1.32153 3.73984 1.00085 3.41915C0.68016 3.09847 0.5 2.66352 0.5 2.21C0.5 1.75648 0.68016 1.32153 1.00085 1.00085C1.32153 0.68016 1.75648 0.5 2.21 0.5C2.66352 0.5 3.09847 0.68016 3.41915 1.00085C3.73984 1.32153 3.92 1.75648 3.92 2.21C3.92 2.66352 3.73984 3.09847 3.41915 3.41915C3.09847 3.73984 2.66352 3.92 2.21 3.92ZM7.91 3.92C7.45648 3.92 7.02153 3.73984 6.70085 3.41915C6.38016 3.09847 6.2 2.66352 6.2 2.21C6.2 1.75648 6.38016 1.32153 6.70085 1.00085C7.02153 0.68016 7.45648 0.5 7.91 0.5C8.36352 0.5 8.79847 0.68016 9.11915 1.00085C9.43984 1.32153 9.62 1.75648 9.62 2.21C9.62 2.66352 9.43984 3.09847 9.11915 3.41915C8.79847 3.73984 8.36352 3.92 7.91 3.92ZM13.61 3.92C13.1565 3.92 12.7215 3.73984 12.4008 3.41915C12.0802 3.09847 11.9 2.66352 11.9 2.21C11.9 1.75648 12.0802 1.32153 12.4008 1.00085C12.7215 0.68016 13.1565 0.5 13.61 0.5C14.0635 0.5 14.4985 0.68016 14.8192 1.00085C15.1398 1.32153 15.32 1.75648 15.32 2.21C15.32 2.66352 15.1398 3.09847 14.8192 3.41915C14.4985 3.73984 14.0635 3.92 13.61 3.92Z" fill="#4154F1"/>
</svg>
