<svg width="22" height="22" viewBox="0 0 22 22" fill="none" xmlns="http://www.w3.org/2000/svg">
<g clip-path="url(#clip0_5_7)">
<path d="M11 21.3125C5.31369 21.3125 0.6875 16.6863 0.6875 11C0.6875 8.49338 1.59706 6.0775 3.24981 4.19719C3.37563 4.05488 3.59288 4.04181 3.73519 4.16625C3.8775 4.29137 3.89125 4.50931 3.76681 4.65162C2.22406 6.40544 1.375 8.66044 1.375 11C1.375 16.3075 5.6925 20.625 11 20.625C16.3075 20.625 20.625 16.3075 20.625 11C20.625 5.6925 16.3075 1.375 11 1.375C9.2785 1.375 7.59 1.83425 6.11669 2.70394C5.95513 2.79813 5.74338 2.74588 5.64644 2.58225C5.5495 2.41931 5.60381 2.20825 5.76813 2.11131C7.34663 1.17975 9.15544 0.6875 11 0.6875C16.6863 0.6875 21.3125 5.31369 21.3125 11C21.3125 16.6863 16.6863 21.3125 11 21.3125Z" fill="white"/>
<path d="M11 19.5938C6.26106 19.5938 2.40625 15.7389 2.40625 11C2.40625 6.26106 6.26106 2.40625 11 2.40625C15.7389 2.40625 19.5938 6.26106 19.5938 11C19.5938 15.7389 15.7389 19.5938 11 19.5938ZM11 3.09375C6.64056 3.09375 3.09375 6.64056 3.09375 11C3.09375 15.3594 6.64056 18.9062 11 18.9062C15.3594 18.9062 18.9062 15.3594 18.9062 11C18.9062 6.64056 15.3594 3.09375 11 3.09375Z" fill="white"/>
<path d="M14.2656 5.68563C14.1763 5.68563 14.0869 5.65125 14.0243 5.58938C13.9556 5.52063 13.9219 5.43125 13.9219 5.34188C13.9219 5.2525 13.9563 5.16313 14.0243 5.10125C14.1549 4.97063 14.3825 4.97063 14.5056 5.10125C14.575 5.16313 14.6087 5.2525 14.6087 5.34188C14.6087 5.43125 14.575 5.52063 14.5063 5.5825C14.4444 5.65125 14.355 5.68563 14.2656 5.68563ZM7.73438 17.0012C7.645 17.0012 7.55563 16.9599 7.49306 16.8988C7.42431 16.8293 7.39062 16.7406 7.39062 16.6574C7.39062 16.5681 7.425 16.4787 7.48688 16.4106C7.6175 16.2862 7.85125 16.2862 7.975 16.4106C8.04444 16.4794 8.07812 16.5681 8.07812 16.6574C8.07812 16.7399 8.04375 16.8293 7.98119 16.8988C7.91313 16.9606 7.82375 17.0012 7.73438 17.0012ZM16.6574 8.07813C16.5681 8.07813 16.4787 8.04375 16.4168 7.98119C16.3481 7.91244 16.3137 7.82375 16.3137 7.73438C16.3137 7.645 16.3488 7.55563 16.4106 7.49306C16.5474 7.35625 16.7743 7.36313 16.8987 7.49306C16.9606 7.55563 17.0012 7.645 17.0012 7.73438C17.0012 7.82375 16.9668 7.91313 16.8987 7.975C16.8369 8.04375 16.7468 8.07813 16.6574 8.07813ZM5.34187 14.6094C5.2525 14.6094 5.17 14.575 5.10125 14.5124C5.03181 14.4375 4.99812 14.3481 4.99812 14.2656C4.99812 14.1763 5.0325 14.0938 5.09506 14.0243C5.24631 13.8875 5.45875 13.8944 5.59006 14.0243C5.65194 14.0869 5.68631 14.1763 5.68631 14.2656C5.68631 14.355 5.65194 14.4444 5.59006 14.5063C5.52062 14.575 5.43812 14.6094 5.34187 14.6094ZM17.5312 11.3438C17.4419 11.3438 17.3525 11.3094 17.2899 11.2406C17.2219 11.1788 17.1875 11.0894 17.1875 11C17.1875 10.9106 17.2219 10.8213 17.2899 10.7587C17.4144 10.6288 17.6413 10.6288 17.7712 10.7518C17.8406 10.8213 17.875 10.9106 17.875 11C17.875 11.0894 17.8406 11.1788 17.7781 11.2406C17.71 11.3094 17.6206 11.3438 17.5312 11.3438ZM4.46875 11.3438C4.37938 11.3438 4.29 11.3094 4.22744 11.2406C4.15938 11.1788 4.125 11.0894 4.125 11C4.125 10.9106 4.15938 10.8213 4.22744 10.7587C4.35188 10.6288 4.57875 10.6288 4.70869 10.7518C4.77812 10.8213 4.8125 10.9106 4.8125 11C4.8125 11.0894 4.77813 11.1788 4.71556 11.2406C4.6475 11.3094 4.55812 11.3438 4.46875 11.3438Z" fill="white"/>
<path d="M16.6574 14.6094C16.5681 14.6094 16.4787 14.575 16.4106 14.5124C16.3487 14.4437 16.3137 14.355 16.3137 14.2656C16.3137 14.1762 16.3487 14.0869 16.4106 14.0243C16.5474 13.8875 16.7743 13.8944 16.8987 14.0243C16.9606 14.0869 17.0012 14.1762 17.0012 14.2656C17.0012 14.355 16.9668 14.4444 16.8987 14.5062C16.8369 14.575 16.7468 14.6094 16.6574 14.6094ZM5.34187 8.07812C5.2525 8.07812 5.17 8.04375 5.10125 7.98119C5.03181 7.90625 4.99812 7.81687 4.99812 7.73437C4.99812 7.645 5.0325 7.5625 5.09506 7.49306C5.24631 7.35625 5.45875 7.36312 5.59006 7.49306C5.65194 7.55562 5.68631 7.645 5.68631 7.73437C5.68631 7.82375 5.65194 7.91312 5.59006 7.975C5.52062 8.04375 5.43056 8.07812 5.34187 8.07812Z" fill="white"/>
<path d="M14.2656 17.0012C14.1763 17.0012 14.0869 16.9668 14.0243 16.9049C13.9556 16.8293 13.9219 16.7468 13.9219 16.6574C13.9219 16.5681 13.9562 16.4787 14.0181 16.4106C14.1556 16.28 14.3763 16.2862 14.5063 16.4106C14.5757 16.4794 14.6094 16.5681 14.6094 16.6574C14.6094 16.7399 14.575 16.8293 14.5124 16.8987C14.4444 16.9675 14.355 17.0012 14.2656 17.0012ZM7.73438 5.68562C7.645 5.68562 7.55563 5.65125 7.49306 5.58319C7.425 5.52062 7.39062 5.43056 7.39062 5.34187C7.39062 5.25319 7.425 5.16312 7.49306 5.10125C7.6175 4.97062 7.84437 4.97062 7.97431 5.09437C8.04375 5.16312 8.07744 5.25181 8.07744 5.34119C8.07744 5.43056 8.04375 5.52062 7.975 5.5825C7.90625 5.65125 7.82375 5.68562 7.73438 5.68562Z" fill="white"/>
<path d="M11 17.875C10.9106 17.875 10.8281 17.8406 10.7587 17.7781C10.6906 17.7031 10.6562 17.6206 10.6562 17.5312C10.6562 17.4419 10.6906 17.3525 10.7525 17.2899C10.8969 17.1531 11.1169 17.16 11.2406 17.2899C11.3094 17.3525 11.3438 17.4419 11.3438 17.5312C11.3438 17.6206 11.3094 17.71 11.2406 17.7719C11.1788 17.8406 11.0894 17.875 11 17.875ZM11 4.8125C10.9106 4.8125 10.8281 4.77812 10.7587 4.71556C10.6906 4.6475 10.6562 4.55812 10.6562 4.46875C10.6562 4.37181 10.6906 4.29 10.7525 4.22744C10.8969 4.09062 11.1169 4.0975 11.2406 4.22744C11.3094 4.29 11.3438 4.37937 11.3438 4.46875C11.3438 4.55812 11.3094 4.6475 11.2468 4.70937C11.1787 4.77812 11.0894 4.8125 11 4.8125Z" fill="white"/>
<path d="M15.3753 6.62475C15.2412 6.49069 15.0233 6.49069 14.8892 6.62475L11.1678 10.3462C11.4091 10.4088 11.5913 10.5909 11.6538 10.8323L15.3753 7.11082C15.51 6.97607 15.51 6.75881 15.3753 6.62475ZM10.8323 10.3462L6.62475 6.13869C6.49069 6.00463 6.27275 6.00463 6.13869 6.13869C6.00463 6.27275 6.00463 6.49069 6.13869 6.62475L10.3462 10.8323C10.4088 10.5909 10.5909 10.4088 10.8323 10.3462Z" fill="white"/>
<path d="M11 12.0312C10.4314 12.0312 9.96875 11.5686 9.96875 11C9.96875 10.4314 10.4314 9.96875 11 9.96875C11.5686 9.96875 12.0312 10.4314 12.0312 11C12.0312 11.5686 11.5686 12.0312 11 12.0312ZM11 10.6562C10.8109 10.6562 10.6562 10.8109 10.6562 11C10.6562 11.1891 10.8109 11.3438 11 11.3438C11.1891 11.3438 11.3438 11.1891 11.3438 11C11.3438 10.8109 11.1891 10.6562 11 10.6562Z" fill="white"/>
<path d="M5.15625 3.09375C5.15625 3.28281 5.00156 3.4375 4.8125 3.4375C4.62344 3.4375 4.46875 3.28281 4.46875 3.09375C4.46875 2.90469 4.62344 2.75 4.8125 2.75C5.00156 2.75 5.15625 2.90469 5.15625 3.09375Z" fill="white"/>
</g>
<defs>
<clipPath id="clip0_5_7">
<rect width="22" height="22" fill="white"/>
</clipPath>
</defs>
</svg>
