<svg width="22" height="16" viewBox="0 0 22 16" fill="none" xmlns="http://www.w3.org/2000/svg">
<path fill-rule="evenodd" clip-rule="evenodd" d="M7.2665 7.787C9.27953 7.787 10.91 6.15654 10.91 4.1435C10.91 2.13047 9.27953 0.5 7.2665 0.5C5.25346 0.5 3.623 2.13047 3.623 4.1435C3.623 6.15654 5.25346 7.787 7.2665 7.787ZM9.869 4.1435C9.869 5.58159 8.70459 6.746 7.2665 6.746C5.82841 6.746 4.664 5.58159 4.664 4.1435C4.664 2.70541 5.82841 1.541 7.2665 1.541C8.70459 1.541 9.869 2.70541 9.869 4.1435Z" fill="#333333"/>
<path fill-rule="evenodd" clip-rule="evenodd" d="M0.5 15.0741V12.1593C0.5 9.94402 5.00815 8.82806 7.2665 8.82806C8.76877 8.82806 11.2666 9.32186 12.7707 10.3046C13.8428 10.0147 15.0186 9.86906 15.8548 9.86906C16.8218 9.86906 18.1194 10.0638 19.1907 10.4576C19.7254 10.6542 20.2368 10.9121 20.6237 11.2465C21.0133 11.5831 21.32 12.0383 21.32 12.6104V15.0741H0.5ZM1.541 12.1593C1.541 11.9941 1.61676 11.7682 1.9398 11.4746C2.26922 11.1753 2.77626 10.8846 3.41835 10.6313C4.70356 10.1244 6.26537 9.86906 7.2665 9.86906C8.26763 9.86906 9.82944 10.1244 11.1147 10.6313C11.7567 10.8846 12.2638 11.1753 12.5932 11.4746C12.9162 11.7682 12.992 11.9941 12.992 12.1593V14.0331H1.541V12.1593ZM13.6963 11.1543C14.4836 10.9915 15.2736 10.9101 15.8548 10.9101C16.7118 10.9101 17.8865 11.0873 18.8315 11.4347C19.305 11.6087 19.6879 11.8137 19.9431 12.0342C20.1956 12.2524 20.279 12.444 20.279 12.6104V14.0331H14.033V12.1593C14.033 11.7944 13.9107 11.4594 13.6963 11.1543Z" fill="#333333"/>
<path fill-rule="evenodd" clip-rule="evenodd" d="M18.7175 5.96524C18.7175 7.54689 17.4364 8.82799 15.8547 8.82799C14.2731 8.82799 12.992 7.54689 12.992 5.96524C12.992 4.38355 14.2731 3.10249 15.8547 3.10249C17.4364 3.10249 18.7175 4.38355 18.7175 5.96524ZM15.8547 7.78699C16.8615 7.78699 17.6765 6.97199 17.6765 5.96524C17.6765 4.95849 16.8615 4.14349 15.8547 4.14349C14.848 4.14349 14.033 4.95849 14.033 5.96524C14.033 6.97199 14.848 7.78699 15.8547 7.78699Z" fill="#333333"/>
</svg>
