<svg width="28" height="29" viewBox="0 0 28 29" fill="none" xmlns="http://www.w3.org/2000/svg">
<path d="M13.91 16.0274C9.62869 16.0274 6.14633 12.545 6.14633 8.26369C6.14633 3.98237 9.62869 0.5 13.91 0.5C18.1913 0.5 21.6737 3.98237 21.6737 8.26369C21.6737 12.545 18.1913 16.0274 13.91 16.0274ZM13.91 1.91158C10.4079 1.91158 7.55791 4.76156 7.55791 8.26369C7.55791 11.7658 10.4079 14.6158 13.91 14.6158C17.4121 14.6158 20.2621 11.7658 20.2621 8.26369C20.2621 4.76156 17.4121 1.91158 13.91 1.91158Z" fill="black"/>
<path d="M25.2026 28.7315H2.61737C1.44999 28.7315 0.5 27.7815 0.5 26.6141C0.5 26.5181 0.519762 24.2356 2.22918 21.9559C3.22435 20.629 4.58652 19.5746 6.279 18.8236C8.34556 17.9047 10.9132 17.4389 13.91 17.4389C16.9068 17.4389 19.4744 17.9047 21.541 18.8236C23.2335 19.576 24.5957 20.629 25.5908 21.9559C27.3002 24.2356 27.32 26.5181 27.32 26.6141C27.32 27.7815 26.37 28.7315 25.2026 28.7315ZM13.91 18.8505C8.98782 18.8505 5.35583 20.1957 3.40644 22.7408C1.94546 24.6478 1.91299 26.5972 1.91158 26.617C1.91158 27.0037 2.22777 27.3199 2.61737 27.3199H25.2026C25.5922 27.3199 25.9084 27.0037 25.9084 26.6141C25.9084 26.5972 25.876 24.6478 24.4136 22.7408C22.4628 20.1957 18.8308 18.8505 13.91 18.8505Z" fill="black"/>
</svg>
